<svg xmlns="http://www.w3.org/2000/svg" width="20.533" height="19.066" viewBox="0 0 20.533 19.066"><path d="M3.7,20.566a2.2,2.2,0,0,1-2.2-2.2V3.7A2.2,2.2,0,0,1,3.7,1.5H15.433a.733.733,0,1,1,0,1.467H3.7a.733.733,0,0,0-.733.733V18.366A.733.733,0,0,0,3.7,19.1H18.366a.733.733,0,0,0,.733-.733V11.033a.733.733,0,0,1,1.467,0v7.333a2.2,2.2,0,0,1-2.2,2.2Z" transform="translate(-1.5 -1.5)" fill="#f7931d"/><path d="M10.153,14.019,20.419,3.753A.734.734,0,1,0,19.38,2.714L9.633,12.463,5.753,8.581A.734.734,0,0,0,4.714,9.619l4.4,4.4a.733.733,0,0,0,1.038,0Z" transform="translate(-0.101 -1.034)" fill="#f7931d"/></svg>